<?xml version="1.0" encoding="utf-8"?>
<!-- Generator: Adobe Illustrator 18.1.1, SVG Export Plug-In . SVG Version: 6.00 Build 0)  -->
<svg version="1.1" id="Layer_1" xmlns="http://www.w3.org/2000/svg" xmlns:xlink="http://www.w3.org/1999/xlink" x="0px" y="0px"
	 viewBox="0 0 458.2 81.1" enable-background="new 0 0 458.2 81.1" xml:space="preserve">
<g>
	<g>
		<path fill="#00B9AD" d="M46.3,36.9H26v20.5c0,7,3.7,9.6,8.4,9.6c3.6,0,7.5-1.8,10.5-3.7l5.6,11.8c-4.9,3.4-10.6,5.9-18.6,5.9
			c-13.9,0-21-7.9-21-22.4V36.9H0V23.5h10.8V4.7H26v18.7h20.3V36.9z"/>
		<path fill="#00B9AD" d="M69.3,79.6H54.1V23.5h15.1V79.6z"/>
		<path fill="#00B9AD" d="M170.4,43.9v35.8h-15.1V48.8c0-8.1-4.1-12.6-11-12.6c-6.5,0-11.9,4.2-11.9,12.7v30.8h-15.1V48.8
			c0-8.1-4.1-12.6-11-12.6c-6.5,0-11.9,4.2-11.9,12.7v30.8H79.4V23.5h14.7v6.6c4-6,10.1-8.1,16.5-8.1c8.1,0,14.8,3.7,18.5,9.6
			c4.3-7.1,11.7-9.6,19.1-9.6C161.5,22,170.4,30.8,170.4,43.9z"/>
		<path fill="#00B9AD" d="M232.6,51.5c0,1.7-0.1,3.8-0.3,5.1h-39.8c1.6,8.1,7.3,11.6,14.4,11.6c4.9,0,10.1-2,14.2-5.4l8.9,9.7
			c-6.4,5.9-14.5,8.5-23.9,8.5c-17.2,0-29.2-11.7-29.2-29.4c0-17.7,11.6-29.7,28.4-29.7C221.5,22,232.5,34,232.6,51.5z M192.6,46.3
			h24.9C216,39.1,211.7,35,205.2,35C198.1,35,193.9,39.3,192.6,46.3z"/>
		<path fill="#00B9AD" d="M254.7,43.5h5.3l15.8-20h18.5l-22.1,26.4l22.3,29.7H276l-16.2-22.7h-5.1v22.7h-15.1V4.7h15.1V43.5z"/>
		<path fill="#00B9AD" d="M350.8,79.6H336v-6.2c-3.7,4.5-9.1,7.7-16.8,7.7c-15.5,0-27.2-12.7-27.2-29.6c0-16.9,11.7-29.6,27.2-29.6
			c7.7,0,13.1,3.1,16.8,7.7v-6.2h14.8V79.6z M307.5,51.5c0,8.6,5.6,15.5,14.5,15.5c8.6,0,14.5-6.6,14.5-15.5
			c0-8.9-5.9-15.5-14.5-15.5C313.1,36.1,307.5,43,307.5,51.5z"/>
		<path fill="#00B9AD" d="M399.4,23.2l-2.3,15c-2.5-1.1-6.1-1.8-9.2-1.8c-7,0-11.8,4.3-11.8,12.6v30.6H361V23.5h14.7v6.1
			c3.5-5.3,8.9-7.6,15.8-7.6C394.8,22,397.3,22.4,399.4,23.2z"/>
		<path fill="#00B9AD" d="M443.1,29.3V4.7h15.1v74.9h-14.8v-6.2c-3.7,4.5-9.1,7.7-16.8,7.7c-15.5,0-27.2-12.7-27.2-29.6
			c0-16.9,11.7-29.6,27.2-29.6C434.1,22,439.5,24.9,443.1,29.3z M414.9,51.5c0,8.6,5.6,15.5,14.5,15.5c8.6,0,14.5-6.6,14.5-15.5
			c0-8.9-5.9-15.5-14.5-15.5C420.5,36.1,414.9,43,414.9,51.5z"/>
	</g>
	<circle fill="#00B9AD" cx="61.5" cy="8.3" r="8.3"/>
</g>
</svg>
